<svg xmlns="http://www.w3.org/2000/svg" viewBox="0 0 138 60" role="img" aria-label="育誠不動産株式会社">
  <title>育誠不動産株式会社</title>
  <!-- Left group: 4 diagonal stripes (stride=14, slant=20) -->
  <polygon points="0,60 9,60 29,0 20,0"   fill="#CC0000"/>
  <polygon points="14,60 23,60 43,0 34,0" fill="#CC0000"/>
  <polygon points="28,60 37,60 57,0 48,0" fill="#CC0000"/>
  <polygon points="42,60 51,60 71,0 62,0" fill="#CC0000"/>
  <!-- Right group: 4 diagonal stripes (gap=16 from left group) -->
  <polygon points="67,60 76,60 96,0 87,0"   fill="#CC0000"/>
  <polygon points="81,60 90,60 110,0 101,0" fill="#CC0000"/>
  <polygon points="95,60 104,60 124,0 115,0" fill="#CC0000"/>
  <polygon points="109,60 118,60 138,0 129,0" fill="#CC0000"/>
</svg>
