<svg xmlns="http://www.w3.org/2000/svg" viewBox="0 0 60 60" role="img" aria-label="育誠不動産株式会社">
  <title>育誠不動産株式会社</title>
  <polygon points="0.5,48 2.5,48 22.5,12 20.5,12" fill="#BC3026"/>
  <polygon points="5,48 7,48 27,12 25,12" fill="#BC3026"/>
  <polygon points="9.5,48 11.5,48 31.5,12 29.5,12" fill="#BC3026"/>
  <polygon points="14,48 16,48 36,12 34,12" fill="#BC3026"/>
  <polygon points="23.5,48 25.5,48 45.5,12 43.5,12" fill="#BC3026"/>
  <polygon points="28.5,48 30.5,48 50.5,12 48.5,12" fill="#BC3026"/>
  <polygon points="33,48 35,48 55,12 53,12" fill="#BC3026"/>
  <polygon points="37.5,48 39.5,48 59.5,12 57.5,12" fill="#BC3026"/>
</svg>
